<?xml version="1.0" ?><svg enable-background="new 0 0 144 144" id="Layer_1" version="1.1" viewBox="0 0 144 144" xml:space="preserve" xmlns="http://www.w3.org/2000/svg" xmlns:xlink="http://www.w3.org/1999/xlink"><g><g><polyline fill="none" points="    73.237,38.231 76,25.987 141.524,41.752 121.645,129.829 106.893,126.267   " stroke="#3D6CB4" stroke-linecap="round" stroke-linejoin="round" stroke-miterlimit="10"/><path d="M81.458,90.95    c15.97,12.748,25.435,35.317,25.435,35.317l-20.726-4.974" fill="none" stroke="#3D6CB4" stroke-linecap="round" stroke-linejoin="round" stroke-miterlimit="10"/><path d="M106.893,126.267c0,0-2.726-6.499-7.719-14.492c0,0,9.787-7.573,27.824-5.637l-5.352,23.691    L106.893,126.267z" fill="#528AC8" opacity="0.3"/><path d="M106.893,126.267    c0,0-2.726-6.499-7.719-14.492c0,0,9.787-7.573,27.824-5.637l-5.352,23.691L106.893,126.267z" fill="none" stroke="#3D6CB4" stroke-linecap="round" stroke-linejoin="round" stroke-miterlimit="10"/><path d="M125.108,60.486c-1.111,4.929-5.882,7.995-10.656,6.847s-7.743-6.073-6.632-11.002    s5.882-7.995,10.656-6.847S126.219,55.557,125.108,60.486z" fill="#528AC8" opacity="0.3"/><path d="M125.108,60.486    c-1.111,4.929-5.882,7.995-10.656,6.847s-7.743-6.073-6.632-11.002s5.882-7.995,10.656-6.847S126.219,55.557,125.108,60.486z" fill="none" stroke="#3D6CB4" stroke-linecap="round" stroke-linejoin="round" stroke-miterlimit="10"/></g><polygon fill="none" points="   87.134,127.784 17.471,139.323 3.472,49.204 73.135,37.665  " stroke="#3D6CB4" stroke-linecap="round" stroke-linejoin="round" stroke-miterlimit="10"/><g><line fill="none" stroke="#3D6CB4" stroke-linecap="round" stroke-linejoin="round" stroke-miterlimit="10" x1="19.086" x2="19.086" y1="6.691" y2="17.81"/><line fill="none" stroke="#3D6CB4" stroke-linecap="round" stroke-linejoin="round" stroke-miterlimit="10" x1="25.31" x2="12.863" y1="12.251" y2="12.251"/></g><g><line fill="none" stroke="#3D6CB4" stroke-linecap="round" stroke-linejoin="round" stroke-miterlimit="10" x1="47.345" x2="47.345" y1="18.02" y2="25.472"/><line fill="none" stroke="#3D6CB4" stroke-linecap="round" stroke-linejoin="round" stroke-miterlimit="10" x1="51.071" x2="43.619" y1="21.746" y2="21.746"/></g><g><path d="M43.112,71.076    c-0.956,1.513-1.885,4.145-1.885,7.922l1.538,44.978c0,1.506,0.799,2.738,1.775,2.738h0.566c0.976,0,1.775-1.232,1.775-2.738    l1.538-44.978c0-3.777-0.929-6.409-1.885-7.922H43.112z" fill="none" stroke="#3D6CB4" stroke-linecap="round" stroke-linejoin="round" stroke-miterlimit="10"/><path d="M40.495,65.29c0,3.195,1.938,5.785,4.328,5.785c2.39,0,5.266-2.731,4.328-5.785    c-1.664-5.419-0.732-9.812-0.732-9.812S40.495,62.095,40.495,65.29z" fill="#528AC8" opacity="0.3"/><path d="M40.495,65.29    c0,3.195,1.938,5.785,4.328,5.785c2.39,0,5.266-2.731,4.328-5.785c-1.664-5.419-0.732-9.812-0.732-9.812    S40.495,62.095,40.495,65.29z" fill="none" stroke="#3D6CB4" stroke-linecap="round" stroke-linejoin="round" stroke-miterlimit="10"/></g><polygon fill="#528AC8" opacity="0.3" points="48.26,84.91 41.47,84.91 41.33,80.817 48.4,80.817  "/><polygon fill="none" points="   48.219,84.868 41.428,84.868 41.288,80.775 48.359,80.775  " stroke="#3D6CB4" stroke-linecap="round" stroke-linejoin="round" stroke-miterlimit="10"/></g><g/><g/><g/><g/><g/><g/></svg>