<svg id="Layer_1" data-name="Layer 1" xmlns="http://www.w3.org/2000/svg" viewBox="0 0 740.4 625.92"><defs><style>.cls-1{fill:#fff7d4;}.cls-2{fill:#ffd35d;}.cls-3{fill:#ff7459;}.cls-4{fill:#ffd24f;}.cls-5{fill:#ffbe1e;}.cls-6{fill:#ffe1b2;}.cls-7{fill:#ffd7a3;}.cls-8{fill:#fdc88e;}.cls-9{fill:#ff6953;}.cls-10{fill:#e95f43;}.cls-11{fill:#a7795e;}.cls-12{fill:#543d38;}.cls-13{fill:#c55f54;}.cls-14{fill:#d5dced;}.cls-15{fill:#afb9d2;}.cls-16{fill:#fff;}.cls-17{fill:#f5dcb4;}.cls-18{fill:#acabb1;}.cls-19{fill:#565659;}.cls-20{fill:#ffe98f;}.cls-21{fill:#ffda44;}.cls-22{fill:#ff9811;}.cls-23{fill:#ffea84;}.cls-24{fill:#ffdc40;}.cls-25{fill:#ff9400;}.cls-26{fill:#ffab15;}.cls-27{fill:#9e7957;}.cls-28{fill:#936c4c;}.cls-29{fill:#6e8c61;}.cls-30{fill:#e9e8d3;}.cls-31{fill:#fcc62d;}.cls-32{fill:#d19d18;}.cls-33{fill:#e4af18;}.cls-34{fill:#607b53;}.cls-35{fill:#546949;}.cls-36{fill:#f2f2f2;}.cls-37{fill:#89d6f7;}.cls-38{fill:#acb3ba;}.cls-39{fill:#e4eaef;}.cls-40{fill:#9eaab5;}.cls-41{fill:#cdd6e0;}.cls-42{fill:#ff7058;}.cls-43{fill:#ffd15c;}.cls-44{fill:#54c0eb;}.cls-45{fill:#4cdbc4;}</style></defs><title>farmerTehnologija</title><path class="cls-1" d="M746.13,209.64a94.52,94.52,0,0,1-94.52,94.52H579.34A181,181,0,0,1,424.77,390.8H327.1a181,181,0,0,1-154.57-86.64H100.25a94.52,94.52,0,1,1,0-189h72.27A181,181,0,0,1,327.1,28.48h97.67a181,181,0,0,1,154.57,86.64h72.27A94.52,94.52,0,0,1,746.13,209.64Z" transform="translate(-5.74 -28.48)"/><path class="cls-2" d="M447.9,76.58l-5.7,5.7,5.7,5.7A9.1,9.1,0,1,1,435,100.84l-5.7-5.7-5.7,5.7A9.1,9.1,0,0,1,410.78,88l5.7-5.7-5.7-5.7a9.1,9.1,0,0,1,12.86-12.86l5.7,5.7,5.7-5.7A9.1,9.1,0,0,1,447.9,76.58Zm152,163.36,5.7-5.7a9.1,9.1,0,0,0-12.86-12.86l-5.7,5.7-5.7-5.7a9.1,9.1,0,0,0-12.86,12.86l5.7,5.7-5.7,5.7A9.1,9.1,0,1,0,581.3,258.5l5.7-5.7,5.7,5.7a9.1,9.1,0,0,0,12.86-12.86ZM314.49,257.76a9.09,9.09,0,0,0-12.86,0l-5.7,5.7-5.7-5.7a9.1,9.1,0,1,0-12.86,12.86l5.7,5.7-5.7,5.7a9.1,9.1,0,1,0,12.86,12.86l5.7-5.7,5.7,5.7A9.1,9.1,0,0,0,314.49,282l-5.7-5.7,5.7-5.7A9.1,9.1,0,0,0,314.49,257.76Z" transform="translate(-5.74 -28.48)"/><path class="cls-2" d="M353.54,94.41v1.21a9.1,9.1,0,0,1-18.19,0V94.41a9.1,9.1,0,1,1,18.19,0ZM126.14,243a9.1,9.1,0,0,0-9.1,9.1v1.21a9.1,9.1,0,0,0,18.19,0v-1.21A9.1,9.1,0,0,0,126.14,243Z" transform="translate(-5.74 -28.48)"/><path class="cls-3" d="M685,113v.86a9.33,9.33,0,0,1-8.53,9.43,9.1,9.1,0,0,1-9.66-9.08v-.86a9.33,9.33,0,0,1,8.53-9.43A9.1,9.1,0,0,1,685,113ZM554.05,328.88a9.33,9.33,0,0,0-8.53,9.43v.5a9.33,9.33,0,0,0,8.53,9.43,9.1,9.1,0,0,0,9.66-9.08V338A9.1,9.1,0,0,0,554.05,328.88Zm-327.45-171a9.33,9.33,0,0,0-8.53,9.43v.5a9.33,9.33,0,0,0,8.53,9.43,9.1,9.1,0,0,0,9.66-9.08V167A9.1,9.1,0,0,0,226.6,157.88Z" transform="translate(-5.74 -28.48)"/><path class="cls-4" d="M382.78,267.38c-7.68-36.19-29.61-60.87-39.48-65.8-22.21-11.1-29.61,6.58-39.48,6.58s-17.27-17.68-39.48-6.58c-9.87,4.93-31.8,29.61-39.48,65.8s79,6.58,79,6.58S390.46,303.58,382.78,267.38Z" transform="translate(-5.74 -28.48)"/><ellipse class="cls-5" cx="298.08" cy="291.18" rx="151.35" ry="55.93"/><path class="cls-6" d="M214.77,360.15c-9.86-2.47-16.33,2.8-16.33,13.16,0,13.71,13.26,47.3,27.21,26.32S214.77,360.15,214.77,360.15Z" transform="translate(-5.74 -28.48)"/><path class="cls-6" d="M391.19,360.15C402,357.68,409,363,409,373.31c0,13.71-14.48,47.3-29.7,26.32S391.19,360.15,391.19,360.15Z" transform="translate(-5.74 -28.48)"/><path class="cls-7" d="M231.53,479.8c14.72-9.48,13.07-37.68,13.07-44.26H363c0,6.58-1.83,34.78,12.89,44.26l-72.11,80.77Z" transform="translate(-5.74 -28.48)"/><path class="cls-8" d="M349.88,507.93l26.05-28.13C361.22,470.33,363,442.13,363,435.55H244.6C253.09,460,309.3,501.9,349.88,507.93Z" transform="translate(-5.74 -28.48)"/><path class="cls-9" d="M455.17,618.51a19.74,19.74,0,0,0,19.74-19.74V559.56c0-29-22.56-59.86-50.14-68.69L383.6,477.7c-22.15,16.94-53.8,40-79.78,40s-57.63-23.1-79.78-40l-41.17,13.17c-27.58,8.82-50.14,39.73-50.14,68.69v39.21a19.74,19.74,0,0,0,19.74,19.74Z" transform="translate(-5.74 -28.48)"/><path class="cls-10" d="M474.48,602.84H464.26V589h10.64V578.93H464.26V565.1h10.64v-5.54c0-1.51-.1-3-.22-4.54H464.26V541.19H472a75.08,75.08,0,0,0-3.88-10.07h-3.85V523.9A82.77,82.77,0,0,0,451,507.2H440.36v-8.69a62.77,62.77,0,0,0-15.58-7.64l-23.68-7.58h-8.55v-2.74l-8.93-2.86-1.14.87v4.73H376.2c-5.53,4.13-11.46,8.39-17.64,12.49V507.2H344.72v-2.9c-11.61,6.54-23.52,11.54-34.67,13h.68v13.83H296.9V517.28h.68c-11.15-1.44-23.06-6.44-34.67-13v2.9H249.08V495.78c-6.18-4.09-12.12-8.36-17.64-12.49h-6.27v-4.73L224,477.7l-8.93,2.86v2.74h-8.55l-23.68,7.58a62.7,62.7,0,0,0-15.58,7.64v8.69H156.6a82.74,82.74,0,0,0-13.22,16.69v7.22h-3.85a75.3,75.3,0,0,0-3.88,10.07h7.74V555H132.95c-.12,1.52-.22,3-.22,4.54v5.54h10.64v13.83H132.73V589h10.64v13.83H133.16a19.68,19.68,0,0,0,5.58,10.07h4.64v3.28a19.53,19.53,0,0,0,9.1,2.32h1v-5.6h13.83v5.6h10.07v-5.6h13.83v5.6h10.07v-5.6H215.1v5.6h10.07v-5.6H239v5.6h10.07v-5.6h13.84v5.6H273v-5.6h13.84v5.6h10.07v-5.6h13.84v5.6h10.07v-5.6h13.84v5.6h10.07v-5.6h13.84v5.6h10.07v-5.6h13.83v5.6h10.07v-5.6h13.83v5.6h10.07v-5.6h13.83v5.6h10.08v-5.6H454.2v5.6h1a19.53,19.53,0,0,0,9.1-2.32v-3.28h4.64A19.71,19.71,0,0,0,474.48,602.84Zm-307.19,0H153.45V589h13.84Zm0-23.91H153.45V565.1h13.84Zm0-23.91H153.45V541.19h13.84Zm0-23.91H153.45V517.28h13.84Zm23.91,71.73H177.36V589h13.83Zm0-23.91H177.36V565.1h13.83Zm0-23.91H177.36V541.19h13.83Zm0-23.91H177.36V517.28h13.83Zm0-23.91H177.36V493.37h13.83Zm23.91,95.64H201.27V589H215.1Zm0-23.91H201.27V565.1H215.1Zm0-23.91H201.27V541.19H215.1Zm0-23.91H201.27V517.28H215.1Zm0-23.91H201.27V493.37H215.1ZM239,602.84H225.18V589H239Zm0-23.91H225.18V565.1H239ZM239,555H225.18V541.19H239Zm0-23.91H225.18V517.28H239Zm0-23.91H225.18V493.37H239Zm23.91,95.64H249.08V589h13.84Zm0-23.91H249.08V565.1h13.84Zm0-23.91H249.08V541.19h13.84Zm0-23.91H249.08V517.28h13.84Zm23.91,71.73H273V589h13.84v13.83Zm0-23.91H273V565.1h13.84v13.83Zm0-23.91H273V541.19h13.84V555Zm0-23.91H273V517.28h13.84v13.83Zm23.91,71.73H296.9V589h13.84Zm0-23.91H296.9V565.1h13.84Zm0-23.91H296.9V541.19h13.84Zm23.91,47.82H320.81V589h13.84Zm0-23.91H320.81V565.1h13.84Zm0-23.91H320.81V541.19h13.84Zm0-23.91H320.81V517.28h13.84Zm23.91,71.73H344.72V589h13.84Zm0-23.91H344.72V565.1h13.84Zm0-23.91H344.72V541.19h13.84Zm0-23.91H344.72V517.28h13.84Zm23.91,71.73H368.63V589h13.83Zm0-23.91H368.63V565.1h13.83Zm0-23.91H368.63V541.19h13.83Zm0-23.91H368.63V517.28h13.83Zm0-23.91H368.63V493.37h13.83Zm23.91,95.64H392.54V589h13.83Zm0-23.91H392.54V565.1h13.83Zm0-23.91H392.54V541.19h13.83Zm0-23.91H392.54V517.28h13.83Zm0-23.91H392.54V493.37h13.83Zm23.91,95.64H416.45V589h13.83Zm0-23.91H416.45V565.1h13.83Zm0-23.91H416.45V541.19h13.83Zm0-23.91H416.45V517.28h13.83Zm0-23.91H416.45V493.37h13.83Zm23.91,95.64H440.35V589h13.83Zm0-23.91H440.35V565.1h13.83Zm0-23.91H440.35V541.19h13.83Zm0-23.91H440.35V517.28h13.83Z" transform="translate(-5.74 -28.48)"/><path class="cls-5" d="M303.82,517.74l-27.46,27.46a6.58,6.58,0,0,1-10-.78l-48.11-66.16,15.33-15.33a6.58,6.58,0,0,1,9.05-.24Z" transform="translate(-5.74 -28.48)"/><path class="cls-5" d="M303.82,517.74l27.46,27.46a6.58,6.58,0,0,0,10-.78l48.11-66.16L374,462.93a6.58,6.58,0,0,0-9.05-.24Z" transform="translate(-5.74 -28.48)"/><path class="cls-6" d="M215.8,315.65c-1.54,9.31-1.62,20.5-1.62,33.8,0,52.7,29.53,118.45,89.64,118.45s89.64-65.75,89.64-118.45c0-13.3-.08-24.49-1.62-33.8-24.12-8.13-54.71-13-88-13S239.91,307.53,215.8,315.65Z" transform="translate(-5.74 -28.48)"/><path class="cls-11" d="M393.8,326.3c-5.27-6.76-10.92-13.7-10.92-13.7v6.58c1.63,59.63-19.59,85.54-19.59,85.54l-27,3a285.1,285.1,0,0,1-63.45,0l-27-3s-21.22-25.91-19.59-85.54V312.6s-5.65,6.94-10.92,13.7c-1.37,5.87-3.57,12.25-3.57,19.25,0,52.7,31.54,128.67,92.84,128.67s91.41-76,91.41-128.67A84.06,84.06,0,0,0,393.8,326.3Zm-108.86,94h39.18a13.05,13.05,0,0,1,12,7.94c-7.23,3.17-18.33,5.22-30.85,5.22-13.21,0-24.83-2.28-32-5.76A13,13,0,0,1,284.95,420.35Z" transform="translate(-5.74 -28.48)"/><path class="cls-12" d="M307.32,414.49c0-8.69-8.43-10.66-14-8.55-10.18,3.86-21.39,14.63-30.85,8,0,0,3.29,13.9,8.84,13.9C282.43,427.82,307.32,429.27,307.32,414.49Z" transform="translate(-5.74 -28.48)"/><path class="cls-12" d="M304.65,414.49c0-8.69,8.43-10.66,14-8.55,10.18,3.86,21.39,14.63,30.85,8,0,0-3.29,13.9-8.84,13.9C329.54,427.82,304.65,429.27,304.65,414.49Z" transform="translate(-5.74 -28.48)"/><path class="cls-13" d="M415.69,487.11l-26.32-8.42v81a6.54,6.54,0,0,1-4.92,6.39c-22.27,5.49-50.22,8.77-80.62,8.77s-58.35-3.28-80.62-8.77a6.54,6.54,0,0,1-4.92-6.39v-81L192,487.11v131.4H415.69V487.11Z" transform="translate(-5.74 -28.48)"/><path class="cls-12" d="M212.14,361l17.77,3.28s6.94-38.91,10.66-55.08a236.27,236.27,0,0,0-27.2,7c-1.58,9.31-1.67,20.5-1.67,33.8C211.7,353.62,211.85,357.29,212.14,361Z" transform="translate(-5.74 -28.48)"/><path class="cls-12" d="M395.5,361l-17.77,3.28s-6.94-38.91-10.66-55.08a236.27,236.27,0,0,1,27.2,7c1.58,9.31,1.67,20.5,1.67,33.8C395.94,353.62,395.79,357.29,395.5,361Z" transform="translate(-5.74 -28.48)"/><path class="cls-12" d="M342.48,325.27l15.79-18a314.15,314.15,0,0,0-54.45-4.65,327.3,327.3,0,0,0-34.08,1.78C280.06,303.73,320.68,309.2,342.48,325.27Z" transform="translate(-5.74 -28.48)"/><path class="cls-14" d="M617,564.29H352.16a26.48,26.48,0,0,1-26.48-26.48V378.92a26.48,26.48,0,0,1,26.48-26.48H617a26.48,26.48,0,0,1,26.48,26.48v158.9A26.48,26.48,0,0,1,617,564.29Z" transform="translate(-5.74 -28.48)"/><path class="cls-15" d="M537.54,620.09,521.93,503a17.65,17.65,0,0,0-17.5-15.32h-39.7A17.66,17.66,0,0,0,447.22,503L431.61,620.09v17.65H537.54V620.09Z" transform="translate(-5.74 -28.48)"/><circle class="cls-16" cx="478.84" cy="406.23" r="17.65"/><path class="cls-17" d="M634.64,654.4H140.3a8.83,8.83,0,0,1-8.83-8.83V627.92a8.83,8.83,0,0,1,8.83-8.83H634.65a8.83,8.83,0,0,1,8.83,8.83v17.65A8.83,8.83,0,0,1,634.64,654.4Z" transform="translate(-5.74 -28.48)"/><g id="_Group_" data-name="&lt;Group&gt;"><path id="_Path_" data-name="&lt;Path&gt;" class="cls-18" d="M112.22,190.43a6.82,6.82,0,1,0,8.92-10.32l-.27-.23-8.92,10.32Z" transform="translate(-5.74 -28.48)"/><polygon id="_Path_2" data-name="&lt;Path&gt;" class="cls-19" points="107.41 153.75 106 155.38 102.95 158.91 106.21 161.72 115.13 151.41 111.87 148.59 108.82 152.12 107.41 153.75"/><path id="_Path_3" data-name="&lt;Path&gt;" class="cls-20" d="M101.2,174.73a7.91,7.91,0,0,1-9.5-.62l2.82-3.26a3.59,3.59,0,0,0,5.06-.37l-19-16.43a18.75,18.75,0,0,0,20.36,30l7.76,3.35,3.05-3.53Z" transform="translate(-5.74 -28.48)"/><path id="_Path_4" data-name="&lt;Path&gt;" class="cls-21" d="M80.57,154.05l19,16.43a3.59,3.59,0,0,0-.37-5.06l2.82-3.26a7.91,7.91,0,0,1,2,9.31l10.54,9.12,3.05-3.53-4.44-7.19a18.75,18.75,0,0,0-32.6-15.82Z" transform="translate(-5.74 -28.48)"/><path id="_Path_5" data-name="&lt;Path&gt;" class="cls-22" d="M94.51,170.85l-2.82,3.26a7.91,7.91,0,0,0,9.5.62l10.54,9.12,2.82-3.26L104,171.48a7.91,7.91,0,0,0-2-9.31l-2.82,3.26a3.59,3.59,0,1,1-4.7,5.43Z" transform="translate(-5.74 -28.48)"/></g><path class="cls-23" d="M263.5,85.62l-5.3-1.88A6.43,6.43,0,0,1,254,79c-.06-.32-.13-.65-.18-1a34.2,34.2,0,0,1,.26-13.22l.31-1.42,7.87,2.79-.86,2.42-5.1-1.81a31.89,31.89,0,0,0,0,10.8c.05.3.11.61.17.91A3.85,3.85,0,0,0,259,81.32l5.3,1.88-.86,2.42Z" transform="translate(-5.74 -28.48)"/><path class="cls-24" d="M290.41,73.55h0a79.36,79.36,0,0,0-29.19-10.33h0c-3,8.59-1.23,19.24,4.48,26l-2.5,7.05L268.05,98l2.5-7.05C279.27,89.28,287.37,82.14,290.41,73.55Z" transform="translate(-5.74 -28.48)"/><path class="cls-25" d="M279.86,91.41l-5.33-1.89.86-2.42L280.72,89a3.85,3.85,0,0,0,3.73-.65l.7-.6A31.89,31.89,0,0,0,292,79.37l-5.1-1.8.86-2.42,7.87,2.78-.65,1.3a34.2,34.2,0,0,1-8.11,10.44l-.76.65A6.43,6.43,0,0,1,279.86,91.41Z" transform="translate(-5.74 -28.48)"/><path class="cls-26" d="M290.41,73.55a79.36,79.36,0,0,0-14.08-6.6l-10.7,30.22,2.42.86,2.5-7.05c8.72-1.7,16.83-8.83,19.86-17.42Z" transform="translate(-5.74 -28.48)"/><path class="cls-27" d="M269.66,110.14l-15.32-5.42,4-11.29,15.32,5.42Z" transform="translate(-5.74 -28.48)"/><path class="cls-28" d="M269.66,110.14,262,107.42l4-11.29,7.66,2.71Z" transform="translate(-5.74 -28.48)"/><rect class="cls-23" x="263" y="96.27" width="2.57" height="9.41" transform="translate(75.19 287.96) rotate(-70.51)"/><rect class="cls-23" x="260.86" y="95.9" width="2.57" height="22.24" transform="translate(68.06 289.97) rotate(-70.51)"/><rect class="cls-24" x="266.1" y="103.32" width="2.57" height="11.12" transform="translate(69.81 296.14) rotate(-70.51)"/><rect class="cls-24" x="265.22" y="99.41" width="2.57" height="4.7" transform="translate(75.93 290.57) rotate(-70.51)"/><g id="_Group_2" data-name="&lt;Group&gt;"><path id="_Path_6" data-name="&lt;Path&gt;" class="cls-29" d="M670.58,212.25l2.08-2.44,2.08-2.44,2.08-2.44,2.08-2.44c1.72-2,5.71-1.45,8.92,1.27a11.55,11.55,0,0,1,1.91,2.08l15.29-18-19.53-16.63-29.1,34.18,14.19,12.08c-1-2-1.08-4,0-5.26" transform="translate(-5.74 -28.48)"/><path id="_Path_7" data-name="&lt;Path&gt;" class="cls-30" d="M677.57,186.72A10.4,10.4,0,0,1,691,198.16l5.26-6.18-.32-.24a4.41,4.41,0,0,1-.5-6.21l.28-.29L689.58,180c-.08.11-.16.22-.24.32a4.41,4.41,0,0,1-6.21.5l-.29-.28Z" transform="translate(-5.74 -28.48)"/><path id="_Path_8" data-name="&lt;Path&gt;" class="cls-30" d="M674.73,207.37l1.22-1.44a10.38,10.38,0,0,1-5.56-10.78l-5.26,6.18.32.24a4.41,4.41,0,0,1,.5,6.21l-.28.29,4.9,4.17,2.08-2.44Z" transform="translate(-5.74 -28.48)"/><path id="_Path_9" data-name="&lt;Path&gt;" class="cls-30" d="M697.27,187.08a2,2,0,1,1,.23,2.82,2,2,0,0,1-.23-2.82" transform="translate(-5.74 -28.48)"/><path id="_Path_10" data-name="&lt;Path&gt;" class="cls-30" d="M684.46,176.17a2,2,0,1,1,.23,2.82,2,2,0,0,1-.23-2.82" transform="translate(-5.74 -28.48)"/><path id="_Path_11" data-name="&lt;Path&gt;" class="cls-30" d="M661.07,203.63a2,2,0,1,1,.23,2.82,2,2,0,0,1-.23-2.82" transform="translate(-5.74 -28.48)"/><path id="_Path_12" data-name="&lt;Path&gt;" class="cls-31" d="M690.49,212.36c-1.72,2-5.71,1.45-8.92-1.27s-4.4-6.58-2.68-8.6,5.71-1.45,8.92,1.27,4.4,6.58,2.68,8.6" transform="translate(-5.74 -28.48)"/><path id="_Path_13" data-name="&lt;Path&gt;" class="cls-32" d="M675.33,218.41c-3.2-2.73-4.4-6.58-2.68-8.6l-2.08,2.44c-1.72,2-.52,5.87,2.68,8.6s7.19,3.3,8.92,1.27l2.08-2.44c-1.72,2-5.71,1.45-8.92-1.27" transform="translate(-5.74 -28.48)"/><path id="_Path_14" data-name="&lt;Path&gt;" class="cls-33" d="M677.41,216c-3.2-2.73-4.4-6.58-2.68-8.6l-2.08,2.44c-1.72,2-.52,5.87,2.68,8.6s7.19,3.3,8.92,1.27l2.08-2.44c-1.72,2-5.71,1.45-8.92-1.27" transform="translate(-5.74 -28.48)"/><path id="_Path_15" data-name="&lt;Path&gt;" class="cls-32" d="M679.49,213.52c-3.2-2.73-4.4-6.58-2.68-8.6l-2.08,2.44c-1.72,2-.52,5.87,2.68,8.6s7.19,3.3,8.92,1.27l2.08-2.44c-1.72,2-5.71,1.45-8.92-1.27" transform="translate(-5.74 -28.48)"/><path id="_Path_16" data-name="&lt;Path&gt;" class="cls-33" d="M681.57,211.08c-3.2-2.73-4.4-6.58-2.68-8.6l-2.08,2.44c-1.72,2-.52,5.87,2.68,8.6s7.19,3.3,8.92,1.27l2.08-2.44c-1.72,2-5.71,1.45-8.92-1.27" transform="translate(-5.74 -28.48)"/><path id="_Path_17" data-name="&lt;Path&gt;" class="cls-31" d="M704.66,211.79c-1.72,2-5.71,1.45-8.92-1.27s-4.4-6.58-2.68-8.6,5.71-1.45,8.92,1.27,4.4,6.58,2.68,8.6" transform="translate(-5.74 -28.48)"/><path id="_Path_18" data-name="&lt;Path&gt;" class="cls-30" d="M682.92,201.36a7,7,0,0,0,4-4.64c-.39-.6-2.3-1.44-2.9-1.09a4,4,0,0,0-1.37-2.54c-1-.84-2.3-.16-2.69-.32a1.93,1.93,0,0,1-.52-.31,2.11,2.11,0,0,1-.71-1.58l-.15-4.43a10.38,10.38,0,0,0-8.33,9.78l4.36-.56a2.15,2.15,0,0,1,1.93.68,2.12,2.12,0,0,1,.18.25c.14.23.23,2.07.42,2.27-.64,2.05,1.26,2.64,2.79,2.79a5,5,0,0,1,2.94-.31" transform="translate(-5.74 -28.48)"/><path id="_Path_19" data-name="&lt;Path&gt;" class="cls-33" d="M683.27,225.16a11.48,11.48,0,0,1-2.06-2.29,5,5,0,0,1-3.13.35,10.32,10.32,0,0,0,3.12,4.37c3.2,2.73,7.19,3.3,8.92,1.27l2.08-2.44c-1.72,2-5.71,1.45-8.92-1.27" transform="translate(-5.74 -28.48)"/><path id="_Path_20" data-name="&lt;Path&gt;" class="cls-32" d="M685.35,222.72a11.55,11.55,0,0,1-1.91-2.08l-1.26,1.48a3.18,3.18,0,0,1-1,.75,11.48,11.48,0,0,0,2.06,2.29c3.2,2.73,7.19,3.3,8.92,1.27l2.08-2.44c-1.72,2-5.71,1.45-8.92-1.27" transform="translate(-5.74 -28.48)"/><path id="_Path_21" data-name="&lt;Path&gt;" class="cls-33" d="M687.43,220.28a11.55,11.55,0,0,1-1.91-2.08l-1.26,1.48-.82,1a11.55,11.55,0,0,0,1.91,2.08c3.2,2.73,7.19,3.3,8.92,1.27l2.08-2.44c-1.72,2-5.71,1.45-8.92-1.27" transform="translate(-5.74 -28.48)"/><path id="_Path_22" data-name="&lt;Path&gt;" class="cls-32" d="M689.5,217.84a11.55,11.55,0,0,1-1.91-2.08l-1.26,1.48-.82,1a11.55,11.55,0,0,0,1.91,2.08c3.2,2.73,7.19,3.3,8.92,1.27l2.08-2.44c-1.72,2-5.71,1.45-8.92-1.27" transform="translate(-5.74 -28.48)"/><path id="_Path_23" data-name="&lt;Path&gt;" class="cls-33" d="M691.58,215.4a11.55,11.55,0,0,1-1.91-2.08l-1.26,1.48-.82,1a11.55,11.55,0,0,0,1.91,2.08c3.2,2.73,7.19,3.3,8.92,1.27l2.08-2.44c-1.72,2-5.71,1.45-8.92-1.27" transform="translate(-5.74 -28.48)"/><path id="_Path_24" data-name="&lt;Path&gt;" class="cls-32" d="M693.66,213a11.24,11.24,0,0,1-2.4-2.81,3.46,3.46,0,0,1-.78,2.21l-.82,1a11.55,11.55,0,0,0,1.91,2.08c3.2,2.73,7.19,3.3,8.92,1.27l2.08-2.44c-1.72,2-5.71,1.45-8.92-1.27" transform="translate(-5.74 -28.48)"/><path id="_Path_25" data-name="&lt;Path&gt;" class="cls-33" d="M695.74,210.52c-3.2-2.73-4.4-6.58-2.68-8.6L691,204.36a3.46,3.46,0,0,0-.78,2.21,6.9,6.9,0,0,1,1.06,3.58,11.24,11.24,0,0,0,2.4,2.81c3.2,2.73,7.19,3.3,8.92,1.27l2.08-2.44c-1.72,2-5.71,1.45-8.92-1.27" transform="translate(-5.74 -28.48)"/><path id="_Path_26" data-name="&lt;Path&gt;" class="cls-34" d="M701.66,202.94l8.84-10.38L708.67,191l-9.06,10.64a11.46,11.46,0,0,1,2,1.31" transform="translate(-5.74 -28.48)"/><path id="_Path_27" data-name="&lt;Path&gt;" class="cls-35" d="M699.62,201.63,708.67,191l-1.83-1.56-9.68,11.37a9,9,0,0,1,2.46.82" transform="translate(-5.74 -28.48)"/><path id="_Path_28" data-name="&lt;Path&gt;" class="cls-34" d="M697.16,200.81l9.68-11.37L705,187.88l-12,14a4.26,4.26,0,0,1,4.1-1.11" transform="translate(-5.74 -28.48)"/></g><rect class="cls-36" x="495.27" y="124.94" width="27.1" height="44.93" transform="translate(142.63 507.12) rotate(-63.28)"/><rect class="cls-37" x="499.22" y="137.49" width="4.84" height="48.35" transform="translate(125.94 508.56) rotate(-63.28)"/><rect class="cls-37" x="513.58" y="108.97" width="4.84" height="48.35" transform="translate(159.31 505.69) rotate(-63.28)"/><polygon class="cls-38" points="497.34 149.59 504.9 153.4 506.37 142.86 506.6 141.28 499.13 137.53 498.9 139.1 498.67 140.68 488.23 135.42 489.36 134.3 490.49 133.18 483.02 129.42 481.9 130.54 474.31 138 481.77 141.76 485.03 138.66 497.98 145.18 497.34 149.59"/><rect class="cls-39" x="513.81" y="113.51" width="1.51" height="44.93" transform="translate(156 505.97) rotate(-63.28)"/><polygon class="cls-40" points="490.49 133.18 489.36 134.3 481.9 130.54 483.02 129.42 490.49 133.18"/><polygon class="cls-40" points="506.37 142.86 498.9 139.1 499.13 137.53 506.6 141.28 506.37 142.86"/><polygon class="cls-41" points="490.17 119.25 489.55 117.36 502.26 113.16 505.21 122.09 516.08 118.42 516.7 120.32 503.94 124.61 500.99 115.68 490.17 119.25"/><circle class="cls-42" cx="495.59" cy="146.78" r="2.42" transform="translate(135.91 494.97) rotate(-63.28)"/><circle class="cls-43" cx="507.36" cy="142.9" r="2.42" transform="translate(145.85 503.34) rotate(-63.28)"/><circle class="cls-44" cx="510.18" cy="151.42" r="2.42" transform="translate(139.79 510.55) rotate(-63.28)"/><circle class="cls-45" cx="522.03" cy="148.03" r="2.42" transform="translate(149.35 519.27) rotate(-63.28)"/></svg>