<?xml version="1.0" ?><svg enable-background="new 0 0 190.1422 194.4198" id="facebook" version="1.1" viewBox="0 0 190.1422 194.4198" xml:space="preserve" xmlns="http://www.w3.org/2000/svg" xmlns:xlink="http://www.w3.org/1999/xlink"><path d="M119.1776,34.7538h19.0254V0.0214h-34.5723c-2.8828-0.1211-38.0391-0.793-47.1523,33.9551  c-0.1328,0.3652-3.043,8.627-3.043,27.9316l-31.6113,0.0938v36.4297l31.6523-0.0938v96.082h48.3477v-96h32V61.8964h-32V50.4042  C101.8241,43.2636,104.8338,34.7538,119.1776,34.7538z" fill="#1C71DA"/><path d="M125.8241,69.8964v20.5234h-32v96H61.4764V90.3143l-31.6523,0.0938V69.9784l31.7344-0.0938l-0.082-4.0684  c-0.4141-20.4473,2.5-29.0488,2.6309-29.459C71.9706,6.4276,101.9979,7.9354,103.287,8.0136l26.916,0.0078v18.7324h-11.0254  c-18.6934,0-25.3535,12.2168-25.3535,23.6504v19.4922H125.8241z" fill="#D0E8FF"/><path d="M172,32.9345c-1.0239,0-2.0474-0.3906-2.8286-1.1714c-1.562-1.5625-1.562-4.0947,0-5.6572l14.1421-14.1421  c1.5625-1.5615,4.0947-1.5615,5.6572,0c1.562,1.5625,1.562,4.0947,0,5.6572l-14.1421,14.1421  C174.0474,32.5438,173.0239,32.9345,172,32.9345z" fill="#FF5D5D"/><path d="M186.1421,32.933c-1.0239,0-2.0474-0.3906-2.8286-1.1714L169.1714,17.619  c-1.562-1.5625-1.562-4.0952,0-5.6572c1.563-1.5615,4.0952-1.5605,5.6572,0l14.1421,14.1426c1.562,1.5625,1.562,4.0952,0,5.6572  C188.1895,32.5424,187.1655,32.933,186.1421,32.933z" fill="#FF5D5D"/><path d="M14,40.9345c-7.7197,0-14-6.2803-14-14s6.2803-14,14-14s14,6.2803,14,14S21.7197,40.9345,14,40.9345z   M14,20.9345c-3.3086,0-6,2.6914-6,6s2.6914,6,6,6s6-2.6914,6-6S17.3086,20.9345,14,20.9345z" fill="#00D40B"/><path d="M131.3135,191.5619c-1.0239,0-2.0474-0.3906-2.8286-1.1714l-11.3135-11.3135  c-1.562-1.5625-1.562-4.0947,0-5.6567l11.3135-11.314c0.7505-0.7505,1.7676-1.1719,2.8286-1.1719s2.0781,0.4214,2.8286,1.1714  l11.314,11.314c0.75,0.7505,1.1714,1.7676,1.1714,2.8286s-0.4214,2.0781-1.1719,2.8286l-11.314,11.3135  C133.3608,191.1713,132.3369,191.5619,131.3135,191.5619z M125.6567,176.2484l5.6567,5.6567l5.6572-5.6567l-5.6572-5.6572  L125.6567,176.2484z" fill="#FFC504"/></svg>