<?xml version="1.0" encoding="utf-8"?>
<!-- Generator: Adobe Illustrator 15.0.0, SVG Export Plug-In . SVG Version: 6.00 Build 0)  -->
<!DOCTYPE svg PUBLIC "-//W3C//DTD SVG 1.1//EN" "http://www.w3.org/Graphics/SVG/1.1/DTD/svg11.dtd">
<svg version="1.1" id="Layer_4" xmlns="http://www.w3.org/2000/svg" xmlns:xlink="http://www.w3.org/1999/xlink" x="0px" y="0px"
	 width="70px" height="70px" viewBox="0 0 70 70" enable-background="new 0 0 70 70" xml:space="preserve">
<g>
	<g>
		<g>
			<path fill="#E3E5E8" d="M40.544,70.197l-12.072-0.001l-0.747-8.96c-2.463-0.693-4.8-1.723-6.969-3.075l-6.626,5.606L5.595,55.23
				l5.807-6.863c-1.249-2.226-2.172-4.607-2.75-7.103L0,40.543l0.002-12.072l8.96-0.747c0.692-2.463,1.723-4.799,3.074-6.968
				l-5.607-6.627l8.54-8.536L21.83,11.4c2.227-1.249,4.607-2.17,7.103-2.75L29.654,0h12.071l0.748,8.962
				c2.466,0.692,4.801,1.722,6.969,3.074l6.626-5.607l8.537,8.537l-5.809,6.863c1.251,2.231,2.172,4.613,2.75,7.104l8.652,0.721
				l-0.001,12.073l-8.962,0.747c-0.692,2.463-1.723,4.799-3.073,6.968l5.605,6.626l-8.536,8.537l-6.863-5.808
				c-2.229,1.249-4.609,2.17-7.103,2.749L40.544,70.197z M31.091,67.35h6.833l0.682-8.174l1.063-0.203
				c2.883-0.55,5.61-1.602,8.106-3.13l0.877-0.536l6.417,5.43l4.832-4.831l-5.295-6.261l0.607-0.894
				c1.646-2.421,2.828-5.095,3.515-7.946l0.241-1.001l8.38-0.698l0.001-6.832l-8.175-0.682l-0.202-1.063
				c-0.549-2.879-1.602-5.607-3.131-8.108l-0.536-0.877l5.431-6.417l-4.831-4.831l-6.261,5.297l-0.895-0.609
				c-2.419-1.645-5.092-2.828-7.945-3.514l-1.001-0.241l-0.699-8.381h-6.833l-0.68,8.173l-1.063,0.203
				c-2.886,0.549-5.613,1.602-8.106,3.129l-0.877,0.537l-6.417-5.432l-4.833,4.831l5.298,6.261l-0.608,0.895
				c-1.647,2.421-2.829,5.095-3.516,7.947l-0.24,1l-8.38,0.699l-0.002,6.832l8.175,0.683l0.203,1.063
				c0.549,2.886,1.602,5.613,3.129,8.105l0.538,0.877L9.46,55.07l4.831,4.832l6.26-5.299l0.895,0.609
				c2.421,1.646,5.095,2.829,7.947,3.516l1,0.24L31.091,67.35z"/>
		</g>
	</g>
	<g>
		<path fill="#E3E5E8" d="M35.099,53.36c-10.069,0-18.262-8.192-18.262-18.262s8.192-18.261,18.262-18.261
			c10.07,0,18.263,8.192,18.263,18.261S45.169,53.36,35.099,53.36z M35.099,19.685c-8.5,0-15.414,6.915-15.414,15.414
			c0,8.499,6.914,15.414,15.414,15.414c8.501,0,15.415-6.915,15.415-15.414C50.514,26.599,43.6,19.685,35.099,19.685z"/>
	</g>
	<g>
		<g>
			<path fill="#E3E5E8" d="M35.099,47.006c-6.565,0-11.907-5.342-11.907-11.907c0-6.566,5.342-11.907,11.907-11.907
				c6.566,0,11.908,5.341,11.908,11.907C47.007,41.664,41.666,47.006,35.099,47.006z M35.099,26.039c-4.996,0-9.06,4.064-9.06,9.06
				c0,4.997,4.064,9.06,9.06,9.06c4.996,0,9.061-4.063,9.061-9.06C44.16,30.103,40.095,26.039,35.099,26.039z"/>
		</g>
	</g>
</g>
</svg>
