<?xml version="1.0" ?><svg enable-background="new 0 0 144 144" id="Layer_1" version="1.1" viewBox="0 0 144 144" xml:space="preserve" xmlns="http://www.w3.org/2000/svg" xmlns:xlink="http://www.w3.org/1999/xlink"><g><polyline fill="#528AC8" opacity="0.3" points="108.714,60.853 108.714,50.368 116.912,50.368 116.912,60.853  "/><polyline fill="none" points="   108.714,50.368 116.912,50.368 116.912,60.853  " stroke="#3D6CB4" stroke-linecap="round" stroke-linejoin="round" stroke-miterlimit="10"/><polyline fill="#528AC8" opacity="0.3" points="38.963,60.853 38.963,50.368 47.161,50.368 47.161,60.853  "/><polyline fill="none" points="   38.866,60.853 38.866,50.368 47.063,50.368  " stroke="#3D6CB4" stroke-linecap="round" stroke-linejoin="round" stroke-miterlimit="10"/><polyline fill="none" points="   52.933,60.853 47.063,60.853 47.063,23.642 108.714,23.642 108.714,60.853 103.192,60.853  " stroke="#3D6CB4" stroke-linecap="round" stroke-linejoin="round" stroke-miterlimit="10"/><line fill="#FFFFFF" stroke="#3D6CB4" stroke-linecap="round" stroke-linejoin="round" stroke-miterlimit="10" x1="53.36" x2="95.36" y1="32.555" y2="32.555"/><line fill="#FFFFFF" stroke="#3D6CB4" stroke-linecap="round" stroke-linejoin="round" stroke-miterlimit="10" x1="53.36" x2="99.36" y1="41.555" y2="41.555"/><path d="M137.318,75.351h1.66c1.581,0,2.875-1.294,2.875-2.875V61.473   c0-1.581-1.294-2.875-2.875-2.875h-1.66c-1.581,0-2.875,1.294-2.875,2.875v11.003C134.443,74.057,135.736,75.351,137.318,75.351z" fill="#528AC8" opacity="0.3"/><path d="M137.318,75.351   h1.66c1.581,0,2.875-1.294,2.875-2.875V61.473c0-1.581-1.294-2.875-2.875-2.875h-1.66c-1.581,0-2.875,1.294-2.875,2.875v11.003   C134.443,74.057,135.736,75.351,137.318,75.351z" fill="none" stroke="#3D6CB4" stroke-linecap="round" stroke-linejoin="round" stroke-miterlimit="10"/><path d="M16.509,75.388h1.66c1.581,0,2.875-1.294,2.875-2.875V61.51c0-1.581-1.294-2.875-2.875-2.875   h-1.66c-1.581,0-2.875,1.294-2.875,2.875v11.003C13.634,74.095,14.928,75.388,16.509,75.388z" fill="#528AC8" opacity="0.3"/><path d="M16.507,75.376h1.66   c1.581,0,2.875-1.294,2.875-2.875V61.498c0-1.581-1.294-2.875-2.875-2.875h-1.66c-1.581,0-2.875,1.294-2.875,2.875v11.003   C13.632,74.083,14.926,75.376,16.507,75.376z" fill="none" stroke="#3D6CB4" stroke-linecap="round" stroke-linejoin="round" stroke-miterlimit="10"/><path d="M131.789,129.986H23.778c-1.329,0-2.417-1.087-2.417-2.417v-1.395   c0-1.329,1.087-2.417,2.417-2.417h108.011c1.329,0,2.417,1.088,2.417,2.417v1.395C134.206,128.899,133.118,129.986,131.789,129.986   z" fill="#528AC8" opacity="0.3"/><path d="M134.86,60.555h-31   v0.708c0,2.137-2.445,3.292-4.582,3.292H55.93c-2.137,0-2.07-1.155-2.07-3.292v-0.708h-32v64.733v-0.217   c0,0.088-0.414,0.102-0.414,0.191c0,2.692,1.187,5.293,3.879,5.293h103.616c2.692,0,5.718-2.424,5.718-5.116   c0-0.089,0.201-0.388,0.201-0.476v0.325V60.555z" fill="none" stroke="#3D6CB4" stroke-linecap="round" stroke-linejoin="round" stroke-miterlimit="10"/><g><path d="M35.936,77.606h-1.371c-1.306,0-2.375-1.069-2.375-2.375V73.86    c0-1.306,1.069-2.375,2.375-2.375h1.371c1.306,0,2.375,1.069,2.375,2.375v1.371C38.311,76.537,37.242,77.606,35.936,77.606z" fill="#528AC8" opacity="0.3"/><path d="M63.858,77.606h-1.371c-1.306,0-2.375-1.069-2.375-2.375V73.86    c0-1.306,1.069-2.375,2.375-2.375h1.371c1.306,0,2.375,1.069,2.375,2.375v1.371C66.233,76.537,65.164,77.606,63.858,77.606z" fill="#528AC8" opacity="0.3"/><path d="M91.78,77.606h-1.371c-1.306,0-2.375-1.069-2.375-2.375V73.86    c0-1.306,1.069-2.375,2.375-2.375h1.371c1.306,0,2.375,1.069,2.375,2.375v1.371C94.155,76.537,93.086,77.606,91.78,77.606z" fill="#528AC8" opacity="0.3"/><path d="M119.701,77.606h-1.371c-1.306,0-2.375-1.069-2.375-2.375V73.86    c0-1.306,1.069-2.375,2.375-2.375h1.371c1.306,0,2.375,1.069,2.375,2.375v1.371C122.076,76.537,121.008,77.606,119.701,77.606z" fill="#528AC8" opacity="0.3"/><path d="M35.936,77.606    h-1.371c-1.306,0-2.375-1.069-2.375-2.375V73.86c0-1.306,1.069-2.375,2.375-2.375h1.371c1.306,0,2.375,1.069,2.375,2.375v1.371    C38.311,76.537,37.242,77.606,35.936,77.606z" fill="none" stroke="#3D6CB4" stroke-linecap="round" stroke-linejoin="round" stroke-miterlimit="10"/><path d="M49.897,77.606    h-1.371c-1.306,0-2.375-1.069-2.375-2.375V73.86c0-1.306,1.069-2.375,2.375-2.375h1.371c1.306,0,2.375,1.069,2.375,2.375v1.371    C52.272,76.537,51.203,77.606,49.897,77.606z" fill="none" stroke="#3D6CB4" stroke-linecap="round" stroke-linejoin="round" stroke-miterlimit="10"/><path d="M63.858,77.606    h-1.371c-1.306,0-2.375-1.069-2.375-2.375V73.86c0-1.306,1.069-2.375,2.375-2.375h1.371c1.306,0,2.375,1.069,2.375,2.375v1.371    C66.233,76.537,65.164,77.606,63.858,77.606z" fill="none" stroke="#3D6CB4" stroke-linecap="round" stroke-linejoin="round" stroke-miterlimit="10"/><path d="M77.819,77.606    h-1.371c-1.306,0-2.375-1.069-2.375-2.375V73.86c0-1.306,1.069-2.375,2.375-2.375h1.371c1.306,0,2.375,1.069,2.375,2.375v1.371    C80.194,76.537,79.125,77.606,77.819,77.606z" fill="none" stroke="#3D6CB4" stroke-linecap="round" stroke-linejoin="round" stroke-miterlimit="10"/><path d="M91.78,77.606    h-1.371c-1.306,0-2.375-1.069-2.375-2.375V73.86c0-1.306,1.069-2.375,2.375-2.375h1.371c1.306,0,2.375,1.069,2.375,2.375v1.371    C94.155,76.537,93.086,77.606,91.78,77.606z" fill="none" stroke="#3D6CB4" stroke-linecap="round" stroke-linejoin="round" stroke-miterlimit="10"/><path d="M105.741,77.606    h-1.371c-1.306,0-2.375-1.069-2.375-2.375V73.86c0-1.306,1.069-2.375,2.375-2.375h1.371c1.306,0,2.375,1.069,2.375,2.375v1.371    C108.116,76.537,107.047,77.606,105.741,77.606z" fill="none" stroke="#3D6CB4" stroke-linecap="round" stroke-linejoin="round" stroke-miterlimit="10"/><path d="M119.701,77.606    h-1.371c-1.306,0-2.375-1.069-2.375-2.375V73.86c0-1.306,1.069-2.375,2.375-2.375h1.371c1.306,0,2.375,1.069,2.375,2.375v1.371    C122.076,76.537,121.008,77.606,119.701,77.606z" fill="none" stroke="#3D6CB4" stroke-linecap="round" stroke-linejoin="round" stroke-miterlimit="10"/></g><g><path d="M29.493,91.782    h-1.371c-1.306,0-2.375-1.069-2.375-2.375v-1.371c0-1.306,1.069-2.375,2.375-2.375h1.371c1.306,0,2.375,1.069,2.375,2.375v1.371    C31.868,90.713,30.799,91.782,29.493,91.782z" fill="none" stroke="#3D6CB4" stroke-linecap="round" stroke-linejoin="round" stroke-miterlimit="10"/><path d="M43.454,91.782    h-1.371c-1.306,0-2.375-1.069-2.375-2.375v-1.371c0-1.306,1.069-2.375,2.375-2.375h1.371c1.306,0,2.375,1.069,2.375,2.375v1.371    C45.829,90.713,44.76,91.782,43.454,91.782z" fill="none" stroke="#3D6CB4" stroke-linecap="round" stroke-linejoin="round" stroke-miterlimit="10"/><path d="M57.414,91.782    h-1.371c-1.306,0-2.375-1.069-2.375-2.375v-1.371c0-1.306,1.069-2.375,2.375-2.375h1.371c1.306,0,2.375,1.069,2.375,2.375v1.371    C59.789,90.713,58.721,91.782,57.414,91.782z" fill="none" stroke="#3D6CB4" stroke-linecap="round" stroke-linejoin="round" stroke-miterlimit="10"/><path d="M71.375,91.782    h-1.371c-1.306,0-2.375-1.069-2.375-2.375v-1.371c0-1.306,1.069-2.375,2.375-2.375h1.371c1.306,0,2.375,1.069,2.375,2.375v1.371    C73.75,90.713,72.682,91.782,71.375,91.782z" fill="none" stroke="#3D6CB4" stroke-linecap="round" stroke-linejoin="round" stroke-miterlimit="10"/><path d="M85.336,91.782    h-1.371c-1.306,0-2.375-1.069-2.375-2.375v-1.371c0-1.306,1.069-2.375,2.375-2.375h1.371c1.306,0,2.375,1.069,2.375,2.375v1.371    C87.711,90.713,86.642,91.782,85.336,91.782z" fill="none" stroke="#3D6CB4" stroke-linecap="round" stroke-linejoin="round" stroke-miterlimit="10"/><path d="M99.297,91.782    h-1.371c-1.306,0-2.375-1.069-2.375-2.375v-1.371c0-1.306,1.069-2.375,2.375-2.375h1.371c1.306,0,2.375,1.069,2.375,2.375v1.371    C101.672,90.713,100.603,91.782,99.297,91.782z" fill="none" stroke="#3D6CB4" stroke-linecap="round" stroke-linejoin="round" stroke-miterlimit="10"/><path d="M113.258,91.782    h-1.371c-1.306,0-2.375-1.069-2.375-2.375v-1.371c0-1.306,1.069-2.375,2.375-2.375h1.371c1.306,0,2.375,1.069,2.375,2.375v1.371    C115.633,90.713,114.564,91.782,113.258,91.782z" fill="none" stroke="#3D6CB4" stroke-linecap="round" stroke-linejoin="round" stroke-miterlimit="10"/><path d="M126.145,91.782    h-1.371c-1.306,0-2.375-1.069-2.375-2.375v-1.371c0-1.306,1.069-2.375,2.375-2.375h1.371c1.306,0,2.375,1.069,2.375,2.375v1.371    C128.52,90.713,127.451,91.782,126.145,91.782z" fill="none" stroke="#3D6CB4" stroke-linecap="round" stroke-linejoin="round" stroke-miterlimit="10"/></g><g><path d="M35.936,105.958    h-1.371c-1.306,0-2.375-1.069-2.375-2.375v-1.371c0-1.306,1.069-2.375,2.375-2.375h1.371c1.306,0,2.375,1.069,2.375,2.375v1.371    C38.311,104.889,37.242,105.958,35.936,105.958z" fill="none" stroke="#3D6CB4" stroke-linecap="round" stroke-linejoin="round" stroke-miterlimit="10"/><path d="M49.897,105.958    h-1.371c-1.306,0-2.375-1.069-2.375-2.375v-1.371c0-1.306,1.069-2.375,2.375-2.375h1.371c1.306,0,2.375,1.069,2.375,2.375v1.371    C52.272,104.889,51.203,105.958,49.897,105.958z" fill="none" stroke="#3D6CB4" stroke-linecap="round" stroke-linejoin="round" stroke-miterlimit="10"/><path d="M63.858,105.958    h-1.371c-1.306,0-2.375-1.069-2.375-2.375v-1.371c0-1.306,1.069-2.375,2.375-2.375h1.371c1.306,0,2.375,1.069,2.375,2.375v1.371    C66.233,104.889,65.164,105.958,63.858,105.958z" fill="none" stroke="#3D6CB4" stroke-linecap="round" stroke-linejoin="round" stroke-miterlimit="10"/><path d="M77.819,105.958    h-1.371c-1.306,0-2.375-1.069-2.375-2.375v-1.371c0-1.306,1.069-2.375,2.375-2.375h1.371c1.306,0,2.375,1.069,2.375,2.375v1.371    C80.194,104.889,79.125,105.958,77.819,105.958z" fill="none" stroke="#3D6CB4" stroke-linecap="round" stroke-linejoin="round" stroke-miterlimit="10"/><path d="M91.78,105.958    h-1.371c-1.306,0-2.375-1.069-2.375-2.375v-1.371c0-1.306,1.069-2.375,2.375-2.375h1.371c1.306,0,2.375,1.069,2.375,2.375v1.371    C94.155,104.889,93.086,105.958,91.78,105.958z" fill="none" stroke="#3D6CB4" stroke-linecap="round" stroke-linejoin="round" stroke-miterlimit="10"/><path d="M105.741,105.958    h-1.371c-1.306,0-2.375-1.069-2.375-2.375v-1.371c0-1.306,1.069-2.375,2.375-2.375h1.371c1.306,0,2.375,1.069,2.375,2.375v1.371    C108.116,104.889,107.047,105.958,105.741,105.958z" fill="none" stroke="#3D6CB4" stroke-linecap="round" stroke-linejoin="round" stroke-miterlimit="10"/><path d="M119.701,105.958    h-1.371c-1.306,0-2.375-1.069-2.375-2.375v-1.371c0-1.306,1.069-2.375,2.375-2.375h1.371c1.306,0,2.375,1.069,2.375,2.375v1.371    C122.076,104.889,121.008,105.958,119.701,105.958z" fill="none" stroke="#3D6CB4" stroke-linecap="round" stroke-linejoin="round" stroke-miterlimit="10"/></g><path d="M103.459,118.845l-52.651,0c-1.306,0-2.375-1.069-2.375-2.375v-1.371   c0-1.306,1.069-2.375,2.375-2.375h52.651c1.306,0,2.375,1.069,2.375,2.375v1.371C105.834,117.776,104.765,118.845,103.459,118.845z   " fill="#528AC8" opacity="0.3"/><path d="M103.459,118.845   l-52.651,0c-1.306,0-2.375-1.069-2.375-2.375v-1.371c0-1.306,1.069-2.375,2.375-2.375h52.651c1.306,0,2.375,1.069,2.375,2.375   v1.371C105.834,117.776,104.765,118.845,103.459,118.845z" fill="none" stroke="#3D6CB4" stroke-linecap="round" stroke-linejoin="round" stroke-miterlimit="10"/><g><line fill="none" stroke="#3D6CB4" stroke-linecap="round" stroke-linejoin="round" stroke-miterlimit="10" x1="8.597" x2="8.597" y1="14.882" y2="26.962"/><line fill="none" stroke="#3D6CB4" stroke-linecap="round" stroke-linejoin="round" stroke-miterlimit="10" x1="2.557" x2="14.638" y1="20.922" y2="20.922"/></g><g><line fill="none" stroke="#3D6CB4" stroke-linecap="round" stroke-linejoin="round" stroke-miterlimit="10" x1="134.125" x2="134.125" y1="17.602" y2="29.682"/><line fill="none" stroke="#3D6CB4" stroke-linecap="round" stroke-linejoin="round" stroke-miterlimit="10" x1="128.085" x2="140.165" y1="23.642" y2="23.642"/></g><g><line fill="none" stroke="#3D6CB4" stroke-linecap="round" stroke-linejoin="round" stroke-miterlimit="10" x1="22.37" x2="22.37" y1="34.165" y2="41.397"/><line fill="none" stroke="#3D6CB4" stroke-linecap="round" stroke-linejoin="round" stroke-miterlimit="10" x1="18.754" x2="25.986" y1="37.781" y2="37.781"/></g></g><g/><g/><g/><g/><g/><g/></svg>