<?xml version="1.0" ?><svg enable-background="new 0 0 209.8241 196.7712" id="linkedin" version="1.1" viewBox="0 0 209.8241 196.7712" xml:space="preserve" xmlns="http://www.w3.org/2000/svg" xmlns:xlink="http://www.w3.org/1999/xlink"><g><path d="M47.5545,3.7327c-12.4961,0-21.5664,8.6172-21.5664,20.4883c0,11.8633,8.8906,20.4746,21.1367,20.4746   c6.3516,0,11.8242-2.0586,15.8281-5.9551c3.8398-3.7383,5.957-8.8945,5.9531-14.6133   C68.6249,12.1194,59.8436,3.7327,47.5545,3.7327z" fill="#1C71DA"/><path d="M57.3749,33.0061c-2.4805,2.4141-6.0273,3.6895-10.25,3.6895c-7.7344,0-13.1367-5.1289-13.1367-12.4746   c0-7.4688,5.4531-12.4883,13.5664-12.4883c7.9336,0,13.1719,4.9395,13.3516,12.4902   C60.9061,27.6702,59.6522,30.7893,57.3749,33.0061z" fill="#5CB0FF"/><rect fill="#1C71DA" height="132.1777" width="35.9531" x="29.8241" y="51.4534"/><rect fill="#5CB0FF" height="116.1777" width="19.9531" x="37.8241" y="59.4534"/><path d="M160.5819,51.4534c-16.6719,0-26.8789,5.7539-32.793,11.166l-1.125-11.166H85.9881v132.1777h39.8359   v-69.4707c0-2.9922,1.2109-9.2051,1.9727-10.8457c4.8125-10.3652,11.3047-10.3652,21.1367-10.3652   c11.3242,0,20.8906,10.6191,20.8906,23.1875v67.4941h40v-74.6816C209.8241,69.4456,184.2967,51.4534,160.5819,51.4534z" fill="#1C71DA"/><path d="M201.8241,175.6311h-24V116.137c0-16.9062-13.2305-31.1875-28.8906-31.1875   c-10.0469,0-21.4336,0-28.3945,14.998c-1.4375,3.0996-2.7148,10.5293-2.7148,14.2129v61.4707H93.9881V59.4534h25.4414   l1.6328,16.1777h6.5547l1.1719-1.8906c2.668-4.2949,11.1055-14.2871,31.793-14.2871c19.8633,0,41.2422,15.4883,41.2422,49.4961   V175.6311z" fill="#5CB0FF"/></g><path d="M168,22.1438c-1.0234,0-2.0469-0.3906-2.8281-1.1714c-1.5625-1.5625-1.5625-4.0952,0-5.6572l14.1426-14.1421  c1.5605-1.5615,4.0938-1.5615,5.6562,0c1.5625,1.5625,1.5625,4.0952,0,5.6572l-14.1426,14.1421  C170.0479,21.7532,169.0234,22.1438,168,22.1438z" fill="#FF5D5D"/><path d="M182.1426,22.1423c-1.0234,0-2.0479-0.3906-2.8281-1.1714L165.1719,6.8284  c-1.5625-1.5625-1.5625-4.0947,0-5.6572c1.5605-1.5615,4.0957-1.5615,5.6562,0l14.1426,14.1426  c1.5625,1.5625,1.5625,4.0947,0,5.6572C184.1904,21.7517,183.166,22.1423,182.1426,22.1423z" fill="#FF5D5D"/><path d="M14,150.1438c-7.7197,0-14-6.2803-14-14s6.2803-14,14-14s14,6.2803,14,14S21.7197,150.1438,14,150.1438z   M14,130.1438c-3.3086,0-6,2.6914-6,6s2.6914,6,6,6s6-2.6914,6-6S17.3086,130.1438,14,130.1438z" fill="#00D40B"/><path d="M151.3135,196.7712c-1.0234,0-2.0479-0.3906-2.8281-1.1714l-11.3135-11.3135  c-1.5625-1.5625-1.5625-4.0947,0-5.6567l11.3135-11.314c0.75-0.7505,1.7676-1.1719,2.8281-1.1719s2.0781,0.4214,2.8281,1.1719  l11.3135,11.314c1.5625,1.562,1.5625,4.0942,0,5.6567l-11.3135,11.3135C153.3613,196.3806,152.3369,196.7712,151.3135,196.7712z   M145.6572,181.4578l5.6562,5.6567l5.6562-5.6567l-5.6562-5.6572L145.6572,181.4578z" fill="#FFC504"/></svg>