<svg id="Layer_1" data-name="Layer 1" xmlns="http://www.w3.org/2000/svg" viewBox="0 0 655.36 146.99"><defs><style>.cls-1{fill:#2b9cf2;stroke:#fff;stroke-miterlimit:10;stroke-width:2px;}.cls-2{fill:#9a989d;}</style></defs><title>coach-logo-full-c0676f606766a065d8394e7d0944464ea4451ff13780f116f4ac0610d0086937</title><rect class="cls-1" x="15.5" y="63.5" width="68" height="68" transform="translate(-54.45 63.56) rotate(-45)"/><rect class="cls-1" x="63.5" y="15.5" width="68" height="68" transform="translate(-6.45 83.44) rotate(-45)"/><rect class="cls-1" x="111.5" y="63.5" width="68" height="68" transform="translate(-26.33 131.44) rotate(-45)"/><rect class="cls-1" x="159.5" y="15.5" width="68" height="68" transform="translate(21.67 151.32) rotate(-45)"/><rect class="cls-1" x="207.5" y="63.5" width="68" height="68" transform="translate(1.79 199.32) rotate(-45)"/><path class="cls-2" d="M385.5,88.5a14,14,0,0,0-28,0V113H347V88.5a24.52,24.52,0,0,1,41.84-17.34,26.14,26.14,0,0,1,1.91,2.13,25.78,25.78,0,0,1,1.91-2.13A24.5,24.5,0,0,1,434.5,88.5V113H424V88.5a14,14,0,0,0-28,0V113H385.5Z" transform="translate(0 0)"/><path class="cls-2" d="M461.68,98.4a14,14,0,0,0,19.8,0l.05-.05,7.44,7.44-.05.05A24.5,24.5,0,0,1,447.08,88.5a24.5,24.5,0,1,1,49,0,19,19,0,0,1-.33,3.5H458A13.39,13.39,0,0,0,461.68,98.4Zm19.8-19.8a14,14,0,0,0-19.8,0,13.76,13.76,0,0,0-2.24,2.9h24.28A13.82,13.82,0,0,0,481.48,78.6Z" transform="translate(0 0)"/><path class="cls-2" d="M518.24,74.5v14a14,14,0,0,0,14,14V113a24.46,24.46,0,0,1-24.5-24.5V50h10.5V64h14V74.5Z" transform="translate(0 0)"/><path class="cls-2" d="M591,88.5a24.5,24.5,0,1,1-41.84-17.34,24.68,24.68,0,0,1,31.34-2.84V64H591Zm-14.6,9.9a14,14,0,1,0-9.9,4.1A13.49,13.49,0,0,0,576.36,98.4Z" transform="translate(0 0)"/><path class="cls-2" d="M616.86,66a45.39,45.39,0,0,1,14-2,24.46,24.46,0,0,1,24.5,24.5,24.5,24.5,0,0,1-49,.11h10.5a14,14,0,1,0,14-14.11q-14,0-24.5,7v-42h49V50h-38.5Z" transform="translate(0 0)"/></svg>