<?xml version="1.0" ?><svg enable-background="new 0 0 218.1759 209.4854" id="mailbox" version="1.1" viewBox="0 0 218.1759 209.4854" xml:space="preserve" xmlns="http://www.w3.org/2000/svg" xmlns:xlink="http://www.w3.org/1999/xlink"><g><path d="M215.8047,159.71L173.082,28.249c-0.5352-1.6484-2.0703-2.7637-3.8047-2.7637H47.0547   c-1.7305,0-3.2617,1.1113-3.8008,2.7559L0.1992,159.7021C0.0664,160.1025,0,160.5225,0,160.9463v44.5391c0,2.209,1.7891,4,4,4h208   c2.2109,0,4-1.791,4-4v-44.5391C216,160.5264,215.9336,160.1084,215.8047,159.71z" fill="#1C71DA"/><polygon fill="#D0E8FF" points="208,201.4854 8,201.4854 8,161.585 49.9531,33.4854 166.3711,33.4854 208,161.5791  "/><path d="M153.8633,57.2529c-1.2539-0.373-2.6289-0.0996-3.6562,0.7324l-42.0859,34.2305l-42.082-34.2422   c-1.0234-0.8301-2.3984-1.1055-3.6562-0.7324c-1.2656,0.373-2.2656,1.3477-2.6719,2.6035L34.9648,136.249   c-0.3945,1.2168-0.1836,2.5527,0.5703,3.5879c0.7539,1.0332,1.9531,1.6484,3.2344,1.6484h138.707   c1.2812,0,2.4805-0.6133,3.2344-1.6465c0.7539-1.0352,0.9648-2.3691,0.5703-3.5859l-24.7461-76.3965   C156.1289,58.6006,155.1289,57.626,153.8633,57.2529z" fill="#1C71DA"/><path d="M44.2695,133.4814l21.25-65.6152l40.0781,32.6094c1.4688,1.1953,3.5781,1.1953,5.0469,0l40.0781-32.5996   l21.2539,65.6094L44.2695,133.4814z" fill="#5CB0FF"/></g><path d="M102.1759,68c-1.0234,0-2.0469-0.3906-2.8281-1.1714c-1.5625-1.5625-1.5625-4.0952,0-5.6572l14.1426-14.1421  c1.5605-1.5615,4.0938-1.5615,5.6562,0c1.5625,1.5625,1.5625,4.0952,0,5.6572l-14.1426,14.1421  C104.2238,67.6094,103.1994,68,102.1759,68z" fill="#FF5D5D"/><path d="M116.3185,68.0005c-1.0234,0-2.0479-0.3906-2.8281-1.1714L99.3478,52.6865  c-1.5625-1.5625-1.5625-4.0947,0-5.6572c1.5605-1.5615,4.0957-1.5615,5.6562,0l14.1426,14.1426  c1.5625,1.5625,1.5625,4.0947,0,5.6572C118.3664,67.6099,117.3419,68.0005,116.3185,68.0005z" fill="#FF5D5D"/><path d="M204.1759,28c-7.7197,0-14-6.2803-14-14s6.2803-14,14-14s14,6.2803,14,14S211.8957,28,204.1759,28z   M204.1759,8c-3.3086,0-6,2.6914-6,6s2.6914,6,6,6s6-2.6914,6-6S207.4845,8,204.1759,8z" fill="#00D40B"/><path d="M169.4894,190.6274c-1.0234,0-2.0479-0.3906-2.8281-1.1714l-11.3135-11.3135  c-1.5625-1.5625-1.5625-4.0947,0-5.6567l11.3135-11.314c0.75-0.7505,1.7676-1.1719,2.8281-1.1719s2.0781,0.4214,2.8281,1.1719  l11.3135,11.314c1.5625,1.562,1.5625,4.0942,0,5.6567l-11.3135,11.3135C171.5373,190.2368,170.5128,190.6274,169.4894,190.6274z   M163.8332,175.314l5.6562,5.6567l5.6562-5.6567l-5.6562-5.6572L163.8332,175.314z" fill="#FFC504"/></svg>